<svg width="96" height="96" viewBox="0 0 96 96" fill="none" xmlns="http://www.w3.org/2000/svg">
<g clip-path="url(#clip0_11156_12430)">
<rect x="-0.00195312" width="95.2" height="95.2" rx="47.6" fill="#0D0C44"/>
<rect x="10.91" y="10.9119" width="73.3742" height="73.3742" rx="36.6871" stroke="#D1EB5F" stroke-width="3.4"/>
<path d="M52.557 34.1416H35.557C33.9922 34.1416 32.7236 35.4101 32.7236 36.9749V47.5999C32.7236 49.1647 33.9922 50.4333 35.557 50.4333H37.3278V56.8083L46.182 50.4333H52.557C54.1217 50.4333 55.3903 49.1647 55.3903 47.5999V36.9749C55.3903 35.4101 54.1217 34.1416 52.557 34.1416Z" fill="#D1EB5F" stroke="#D1EB5F" stroke-width="1.41667" stroke-miterlimit="10" stroke-linecap="square"/>
<path d="M58.9316 39.1001H59.64C61.2048 39.1001 62.4733 40.3687 62.4733 41.9334V52.5584C62.4733 54.1232 61.2048 55.3918 59.64 55.3918H57.8691V61.7668L49.015 55.3918H46.1816" stroke="#D1EB5F" stroke-width="1.41667" stroke-miterlimit="10" stroke-linecap="square"/>
</g>
<defs>
<clipPath id="clip0_11156_12430">
<rect width="95.2" height="95.2" rx="47.6" fill="white"/>
</clipPath>
</defs>
</svg>
