<svg width="17" height="16" viewBox="0 0 17 16" fill="none" xmlns="http://www.w3.org/2000/svg">
<path d="M4.66699 7C6.36699 7 7.66699 5.7 7.66699 4C7.66699 2.3 6.36699 1 4.66699 1C2.96699 1 1.66699 2.3 1.66699 4C1.66699 5.7 2.96699 7 4.66699 7ZM4.66699 3C5.26699 3 5.66699 3.4 5.66699 4C5.66699 4.6 5.26699 5 4.66699 5C4.06699 5 3.66699 4.6 3.66699 4C3.66699 3.4 4.06699 3 4.66699 3Z" fill="#0D0C44"/>
<path d="M12.667 9C10.967 9 9.66699 10.3 9.66699 12C9.66699 13.7 10.967 15 12.667 15C14.367 15 15.667 13.7 15.667 12C15.667 10.3 14.367 9 12.667 9ZM12.667 13C12.067 13 11.667 12.6 11.667 12C11.667 11.4 12.067 11 12.667 11C13.267 11 13.667 11.4 13.667 12C13.667 12.6 13.267 13 12.667 13Z" fill="#0D0C44"/>
<path d="M14.667 1H9.66699V3H12.267L1.96699 13.3C1.56699 13.7 1.56699 14.3 1.96699 14.7C2.16699 14.9 2.36699 15 2.66699 15C2.96699 15 3.16699 14.9 3.36699 14.7L13.667 4.4V7H15.667V2C15.667 1.4 15.267 1 14.667 1Z" fill="#0D0C44"/>
</svg>
