<svg width="17" height="16" viewBox="0 0 17 16" fill="none" xmlns="http://www.w3.org/2000/svg">
<path d="M7.33298 11.6461C7.09798 11.6461 6.86098 11.5641 6.67198 11.3961C6.25698 11.0301 6.21798 10.3981 6.58298 9.98413C7.06598 9.43613 7.33298 8.73113 7.33298 8.00013C7.33298 7.26913 7.06697 6.56413 6.58397 6.01713C6.21897 5.60313 6.25798 4.97113 6.67298 4.60513C7.08498 4.24113 7.71697 4.27913 8.08397 4.69313C8.88998 5.60613 9.33297 6.78113 9.33297 8.00013C9.33297 9.21913 8.88898 10.3941 8.08298 11.3071C7.88498 11.5311 7.60898 11.6461 7.33298 11.6461Z" fill="#0D0C44"/>
<path d="M10.3336 15.7071C10.0596 15.7071 9.78564 15.5951 9.58864 15.3741C9.22064 14.9621 9.25564 14.3301 9.66664 13.9621C11.3606 12.4451 12.3326 10.2721 12.3326 8.00006C12.3326 5.72806 11.3606 3.55506 9.66664 2.03806C9.25564 1.66906 9.22064 1.03806 9.58864 0.626064C9.95764 0.214064 10.5916 0.181064 11.0006 0.548064C13.1176 2.44306 14.3326 5.15906 14.3326 8.00006C14.3326 10.8411 13.1176 13.5571 11.0006 15.4531C10.8096 15.6231 10.5706 15.7071 10.3336 15.7071Z" fill="#0D0C44"/>
<path d="M3.33301 9C3.88529 9 4.33301 8.55228 4.33301 8C4.33301 7.44772 3.88529 7 3.33301 7C2.78072 7 2.33301 7.44772 2.33301 8C2.33301 8.55228 2.78072 9 3.33301 9Z" fill="#0D0C44"/>
</svg>
